<svg version="1" xmlns="http://www.w3.org/2000/svg" width="1058.667" height="1058.667" viewBox="0 0 794.000000 794.000000"><path d="M372.7 75.6c-.1.1-5.4.5-11.7.9-6.3.3-12.6.8-14 1-1.4.2-5.4.6-9 1-12.9 1.3-17.1 1.9-30 4-4.7.8-9.8 1.6-11.5 1.8-4.7.7-31.3 6.6-39 8.7-20.1 5.4-56.4 17.9-70 24-1.1.5-6 2.7-11 4.9-15.3 6.7-21.7 15.1-21.7 28.3 0 6.1.6 8 5.7 19.2 5.8 12.6 8 15.7 12.5 17.2 5.6 1.9 10.8.9 21.6-4.1 10.7-5 56.5-20 66.4-21.9 1.4-.2 7.5-1.6 13.5-3.1 12.2-2.9 19-4.3 25-5.1 2.2-.3 5.6-.9 7.5-1.4 1.9-.4 6.2-1.1 9.5-1.5 3.2-.4 6.8-.9 7.9-1.1 1.1-.2 5.2-.6 9.1-1 3.8-.3 7.9-.8 8.9-1 9.7-1.8 68.2-2.6 86.1-1.1 18.8 1.6 29.1 2.6 35.5 3.7 3 .5 7.5 1.2 10 1.5 2.5.3 6.8 1 9.5 1.5 2.8.5 6.6 1.2 8.5 1.5 2.9.5 20.8 4.5 27.3 6.1.9.2 2.5.6 3.5.8 16.1 3.8 54.2 16.5 71.9 24 20.4 8.6 25.2 7.7 32.2-6.1 9.8-19.4 10.5-21.4 10.5-30 0-7.6-.2-8.5-3.6-14-2.1-3.3-5.5-7.1-8.1-8.9-5.3-3.7-35.3-15.7-56.2-22.6-22.9-7.5-52.6-14.9-77.5-19.3-8.5-1.5-29.6-4.5-35.6-5-3.9-.3-8-.7-9-.9-6.6-1.3-73.5-3.1-74.7-2z"/><path d="M374.8 165.5c-.2.2-5.9.6-12.8 1s-13.8.9-15.5 1c-7.3.7-15.2 1.6-17.5 2-4.7.8-8.5 1.4-12.5 1.9-2.2.3-5.1.8-6.5 1.1-1.4.3-4.1.8-6 1.1-1.9.4-4.4.8-5.5 1.1-1.1.2-4.2.8-7 1.4-21 4.1-57.9 15.6-81.5 25.4-18.5 7.6-18.4 7.5-13.7 17.6 1.4 3 3.9 8.4 5.6 12.1 7 15.3 19 41.6 20.9 45.8 1.1 2.5 4.3 9.4 7.1 15.3 2.8 6 5.1 11 5.1 11.2 0 .2 1.8 4.1 3.9 8.7 10.7 22.6 14.1 30.1 14.1 30.4 0 .2 1.4 3.2 3 6.6 3.5 7.2 3.6 7.9 1.3 10.6-1.5 1.7-2.5 1.9-5.8 1.3-4.8-.8-14.6.8-19.5 3.3-4.8 2.5-11.2 9.4-13.7 14.7-1.1 2.4-2.8 7.6-3.8 11.6l-1.7 7.2-2.5-2.9c-5.2-6.2-18.6-10.4-33-10.3l-9.3.1-.1-3.2c-.5-22.6-13.4-44-32-53-9.1-4.3-12.1-5-22.9-5-7.1-.1-9.4.4-14 2.5-3 1.5-6.8 3.8-8.4 5.2l-2.9 2.6-3.6-1.9c-15.1-7.6-34.5-5.3-45.3 5.5-6.7 6.8-8.4 12.1-16.3 52-8.7 43.7-8.2 40.8-10.1 51.5-.8 4.7-1.7 9.2-1.9 10-.2.8-.7 3.5-1 6-.3 2.5-.8 5.2-1 6-.2.8-.7 3.5-1 6-.3 2.5-.8 5.6-1 7-.9 5-3.1 21.7-4.9 38.5-1.4 12.4-1.8 36.4-.6 42 2.8 13.3 10.5 24.3 20.3 28.6 6.1 2.7 18.3 3.5 23.8 1.6 6.5-2.2 10.4-5.4 13.4-10.8 1.4-2.7 1.6-3.5 3.5-14.4.6-3.3 1.5-8 2-10.5s1.2-5.6 1.4-7c.3-1.4 1-5 1.6-8 .6-3 1.4-6.9 1.7-8.5.3-1.7 1.3-6.8 2.2-11.5l1.7-8.5 3 .4c1.6.3 7.9.5 13.9.5 12.7 0 21.5-2.2 31-7.9 3.2-1.9 5.8-3.5 6-3.5.1 0 0 1.9-.2 4.2-.2 2.4-.5 10.6-.5 18.3-.1 11.9.2 14.9 1.9 19.7 4.9 13.2 15.3 23.6 29.2 28.9 7.4 2.9 19 3.5 25.6 1.5 2.7-.8 5-1.4 5.2-1.3.1.2-.2 3.2-.7 6.7-.5 3.6-1.2 9.4-1.5 13-.4 3.6-.9 7.3-1.1 8.3-.4 2.4-1.5 13.8-1.9 20.5-.9 15.5 9.2 31.5 22.7 36 17.5 5.7 32.8-1.7 35.3-17.1.3-1.8.8-4.3 1-5.7.8-3.8 1.4-7 2.5-13 .6-3 1.2-6.6 1.5-8 .3-1.4 1.4-7.5 2.5-13.5 1.1-6.1 2.2-11.9 2.4-13 .6-3.3 4.5-23.8 5-26.5 1.8-10.8 3.9-21.6 4.1-21.8.2-.2 2.9 1 6.1 2.6 17.9 9 38.4 5 53.9-10.4 1.7-1.8 1.6-4.5 1.4 32.6-.2 54.5-.3 53.7 1.8 57.2 5.7 9.8 18.7 10.3 24.5.9 2.1-3.3 2.3-4.9 2.5-20.1.1-15.6.2-16.5 2.3-18.2 2.9-2.3 6.5-2.3 8.7.1 3.3 3.5 9.8 23 12.9 38.1.4 1.9.9 22.8 1.1 46.4l.3 43 2.4 4.1c5.2 8.7 17.1 11.2 25 5.1 6.8-5.2 6.9-5.6 7.2-40.1.4-43.9 1.3-53.3 7-73.8 2.9-10.2 6.7-20.1 12.5-32.4 2.3-4.9 5.8-12.4 7.9-16.8 5-10.6 7.6-13 14.3-13 8.2 0 13.5 5.3 13.5 13.6 0 4.8 2.6 9.5 6.5 12 4.9 3.1 13.7 2.3 17.7-1.6 1.7-1.6 3.4-4.5 3.9-6.5.5-1.9 1-16.8 1-33 .2-33.3.9-52.2 1.9-53.2.4-.4 2.4-.3 4.5.2 2.2.4 6.9.7 10.5.5 16.3-.8 31.7-10 43.9-26.3 5.9-7.7 15.3-25.1 18.8-34.5 2-5.4 2.6-5.4 3.1 0 .8 9.1 3.9 15.7 10.3 22.2 7.9 8 17.2 11.9 28.6 11.9 8.9 0 13.3-1.5 18-6.3 3.4-3.4 5-6.8 11.4-23.8l7.4-19.8 2.2 5.5c3.9 9.5 9 16.1 17.2 22 11.7 8.4 27.1 11.1 40.6 7.2 13.5-3.9 25.9-17 36.9-39.1 5.4-10.6 20.4-45.4 29-66.8 16.1-40.4 16.7-42.4 14.8-49.8-1.4-5.1-6.5-10.3-14.2-14.4-8.4-4.5-15.1-5.4-21.3-3.1-6.3 2.5-10.4 7.7-14.8 19.5-2.1 5.5-4.2 10.3-4.5 10.5-.4.2-.8-1.3-.8-3.3-.3-5.4-2.6-9.3-10.2-17-23-23.4-50.3-25.9-70.7-6.5-3.1 2.9-11.6 13.5-13.1 16.2-.1.1-1.3-.2-2.8-.8-6-2.2-22.9-3.2-30.8-1.6-2.3.4-5.5 2.4-8.6 5.2-4 3.5-5.6 6-7.8 11.7-1.5 3.9-2.9 7.4-3.1 7.7-.3.3-1.1-.4-1.9-1.5-3.6-5-11-11.6-16-14.2-3-1.5-5.4-3.1-5.4-3.5 0-.4 2.3-5.6 5.1-11.5s6.8-14.4 8.9-18.8c2.1-4.4 6.3-13.4 9.5-20 3.1-6.6 5.9-12.9 6.1-14.1.6-3.1-1.8-4.7-15-10.3-22.5-9.7-52.6-19.7-76.6-25.5-16.2-3.9-40.9-8.3-56.5-10-2.2-.3-6.9-.7-10.5-1-3.6-.3-9.4-.9-13-1.2-6.3-.6-49.7-1.3-50.2-.9zm-78.3 53.1c11.5 2.4 21.9 14.6 22.9 26.9.4 5.9-1 12.4-3.1 14.7-2.2 2.4-4.6 1.6-11-4-6.3-5.3-8.4-5.2-12.6.8-1.6 2.2-3.5 4-4.4 4-2.4 0-8-3.8-10.1-6.8-2.2-3.1-1.9-4.4 1.7-8.5 4.7-5.2 4.5-6.2-1.2-10.8-9.8-8-10.5-10.4-3.6-14 7.2-3.6 12.2-4.2 21.4-2.3zm192.7 1.6c5.6 1.7 12.8 9 15 15.4 4.1 11.3-.3 23.1-10.9 29.7-11.4 7.1-28.3 2.5-34.3-9.3-4.3-8.5-4.3-16.2.1-24.5 2.3-4.4 9.1-10.1 13.6-11.5 4.2-1.3 11.8-1.2 16.5.2zm-103.3 45.4c4.2.9 11.5 7.5 12.8 11.7 1 3.3.9 14.8-.2 20.4-.3 1.6-.8 4.4-1.1 6.3-1.2 7.5-5.5 24.2-10.5 41-4.5 15.4-9.4 37.5-16.7 75.5-1.1 6-1.9 11.1-1.8 11.3.2.1 2.3-5.3 4.6-12 10.2-29.1 14.7-40.8 20.2-52.8 9.4-20 20.9-33.3 30.8-35.5 9.3-2.1 20.5 1.1 26.9 7.7 4.5 4.6 4.6 7.6 1.1 21.8-4.5 18.3-10.6 47.4-11.6 55.5-.3 2.2-.7 5.1-1 6.5-1.2 7.1-1.5 19.8-.5 22.2 2.3 6.1 9.3 2.2 16.6-9.2 9.9-15.6 25.5-50.8 28-63.5.8-3.9 1.6-8.1 1.9-9.4 1-4.8 4.9-15.7 7.7-21.9 1.6-3.5 2.9-6.6 2.9-6.8 0-1.2 8.8-13.4 12.8-17.6 8.5-9.1 21.8-15.9 35.9-18.3 10.9-1.9 18.5-.1 24 5.7 7 7.3 9.1 19.8 6.9 40.2l-.8 6.9 2.9-2.1c5.2-3.7 15.2-14.5 20.4-21.9 4.9-7.1 12.1-21.2 13.4-26.3 1.4-5.5 3-6.5 10.3-6.4 8.5.2 14.6 1.8 17.3 4.7 2.3 2.5 2.2 4-1.1 18.7-2.6 11.7-6.9 33.3-7.5 38l-.5 3.5 1.6-3.5c.8-1.9 2.2-5.5 3.1-8 6.5-19 22.3-55 24.4-55.8.5-.2.9-.8.9-1.4 0-1.9 8.3-12.3 12.9-16.1 8.1-6.6 16.5-7.3 26.5-2.2 7.4 3.7 15.3 11.5 16.1 15.7.4 2.3-.8 9.1-4 21.7-4.2 16.8-7.7 32.6-9.1 40.6-.2 1.6-.9 5.5-1.4 8.5-1.7 9.3-2.3 22.3-1.1 25.3 3.2 8.2 12.7 2.2 22.4-14.2 6-10.1 14.6-27.4 23.3-46.8 3.6-8.1 7.2-16.2 7.9-17.8.8-1.7 3.5-8.2 6-14.5 2.6-6.3 4.9-11.8 5.1-12.2.4-.6 6.7 2.3 8.2 3.7.2.2-1 4.1-2.6 8.7-1.7 4.6-5.6 15.7-8.7 24.8-3 9.1-6 17.4-6.4 18.5-.5 1.1-3.2 8.1-6.1 15.5-12.8 33-25.6 52.9-38.9 60.8-6.1 3.6-15.2 3.7-23.3.4-5.4-2.2-11.5-8.9-13.8-15.2-2.1-5.5-2.2-7.1-1.7-20.7.3-8.2.8-16.8 1.1-19.3.3-2.5.8-7.2 1.2-10.5.3-3.3.8-6.7.9-7.6.2-.9.6-4 1-6.9.4-2.9.9-6.2 1.1-7.4.2-1.2.7-4.4 1-7.1.3-2.8.8-5.5 1.1-6 1.7-3.7-11.1 11.9-16.7 20.3-11.4 17.1-20.3 35.7-33.7 70.7-3.6 9.3-7.2 18.2-7.9 19.7-1.4 2.6-5.7 5.6-7.9 5.3-4.2-.5-7.6-2-10.7-4.8-5.4-4.9-6.1-7.9-5.3-20.9.3-6.2.8-11.5 1-11.8.2-.3.6-3.2 1-6.5.3-3.2.8-7.2 1-8.9 1.6-9.6 5.7-31.6 6.5-34.6.5-1.9 1.1-5.3 1.5-7.5l.6-4-2.7 4c-7.2 10.6-21 25.2-29.8 31.6-4.1 2.9-4.8 4-6.7 10.3-6.9 24-14.4 41.3-23.1 53.6-9.7 13.8-24.2 24.5-34.6 25.7-12.2 1.4-22.6-8.3-27.6-26-1.7-6-2.9-6.6-4.1-2-1.1 4.6-10.4 22.4-15.3 29.3-13.4 19-28.7 26.1-42 19.4-9.5-4.7-13.2-13-12.6-28 .4-11.4 1.3-23.7 2-29.4.3-2.5.7-5.9.9-7.5 1-8.2 2.7-20.3 3.1-22.5.2-1.4.6-4.5.9-7l.5-4.5-2.5 3c-14.8 17.5-32.7 53.7-50 101.5-5.5 15.3-6.8 18.1-9.7 20.5-4.4 3.8-11.9 3.7-15.7 0-3.1-3-3.2-8.5-.6-30 .3-2.2.7-6 1-8.5.3-2.5.8-5.2 1-6 .2-.8.6-4 1-7 .3-3 .7-6.6 1-8 .3-1.4.9-4.6 1.3-7.3 1.3-6.8-.1-5.8-2.8 2-19 55.5-31.3 77.5-47.3 84.8-13 6-29.4-2.3-32.6-16.4-1.2-5.4-.7-19.7 1.4-37.1 1.1-9.1 1.6-13.7 2.1-16.5.2-1.7.6-4.4.8-6 .3-1.7 1.4-8.4 2.5-15 1.2-6.6 2.4-13.6 2.7-15.5.3-1.9 1.2-6.6 1.9-10.3 1.3-6.8 1.3-6.9-.8-6.3-1.2.3-3.1.6-4.2.6-3.6.1-4.5 1.6-6 10.1-.8 4.6-1.7 9.5-2 10.9-.3 1.4-.7 3.8-1 5.5-.3 1.6-1 5.2-1.5 8-.5 2.7-1.2 6.6-1.5 8.5-.3 1.9-1 5.7-1.5 8.5-.5 2.7-1.2 6.3-1.5 8-.3 1.6-.7 4.1-1 5.5-1.3 6.7-9.7 51.9-10.2 54.5-.2 1.6-3.2 17.2-6.4 34.5-3.3 17.3-6.2 32.6-6.4 34-.3 1.4-.7 3.4-.9 4.5-1.2 5.9-3.9 20.4-4.3 23-.2 1.6-.6 3.7-.9 4.5-.3.8-.8 3.3-1.1 5.5-.9 6.5-2.7 10.7-4.8 11.5-3.8 1.3-8.4-.8-11.3-5.2-2.4-3.6-2.7-5.1-2.7-11.7.1-4.2.4-10.1.9-13.1.4-3 .9-6.6 1.1-8 .1-1.4.5-5.2.9-8.5s.9-7.1 1.1-8.5c.2-1.4.7-4.5 1-7 .4-2.5.8-5.6 1-7 .8-5.1 2.7-18.6 3.1-22 .2-1.9.6-4.6.9-5.9.2-1.4.9-5.9 1.5-10.1.6-4.2 1.2-8.5 1.4-9.6.2-1 .7-4.2 1-6.9.4-2.8.9-6.1 1.1-7.5 2-12.1 4.4-29.4 4.2-29.6-.2-.2-2.9 6.6-6.1 15.1-7.1 19-6.9 18.7-13.4 31.3-6.1 12-9.5 17.2-14.8 22.5-6.1 6-10.7 8-17.4 7.4-14.4-1.3-24.3-12.2-24.3-26.7-.1-6.3 1.1-25.6 1.8-28.9.1-.9.6-5 1-9.1s.8-7.7 1-8c.1-.3.6-3 .9-6.1.4-3.1.9-6.7 1.1-8 .3-1.3.7-4.1 1-6.4 1.2-8.5 2.6-17.2 3.5-21.5.6-2.5 1.2-5.6 1.4-7 .7-4.1 3.6-17.4 4.2-19.2 1.2-4 18.1-6.4 26.9-3.9 7.4 2 7.2 1.4 3.1 17.3-2 7.8-3.9 15.4-4.2 16.8-.3 1.4-.8 3.4-1.1 4.5-.4 1.1-.8 2.4-.9 3-.1.5-1.1 4.6-2.2 9-5 19.5-8.8 43.4-9.1 56.6-.2 6.7.1 8.1 1.8 9.8 2.7 2.7 3 2.7 8.7-1.2 10.6-7.1 20.6-23.9 28.8-48.8 6.2-18.6 18.7-63.7 20.7-74.4.6-3.3 1.7-7.3 2.4-9 3.3-7.8 10.6-10 19.2-5.9 2.6 1.3 4.9 1.9 5.1 1.4.2-.5 2.2-1.5 4.5-2.2 4.8-1.3 4.2-1.2 8.4-2.2 2.7-.6 3.2-1.3 3.9-4.9.4-2.3.8-4.4.9-4.7.1-.3.5-2.5.9-5 .5-2.5 1-5.2 1.1-6.1.2-.9.6-3.2.9-5 .3-1.9.8-4.5 1.1-5.9.3-1.4.8-4.1 1.1-6 2.3-14.3 4.5-22.5 6.8-25.5 4.6-6 13-6.9 21.7-2.5 6.2 3.2 7.3 5.7 6.6 15.3-.3 4.5-.8 9.3-1.2 10.7-.3 1.4-.8 3.8-1 5.5-.3 1.6-1.7 7.1-3 12.1-1.4 5.1-2.5 9.4-2.5 9.7 0 .5 17.9-5.6 20.9-7.2 2.4-1.3 3.1-.5 3.1 3.3 0 6-3 8.9-13.7 13.5-11.6 4.9-16.3 8.4-19.1 14.3-2.1 4.6-5.7 18.5-6.7 25.8-.7 5.1-1.3 9.4-2 13-.2 1.4-.7 4.7-1 7.5-.9 8-1.5 12.6-2.5 18.5-3.7 22.2-2.4 38 3.1 38 6.7 0 15.7-10.3 23.7-27 16.7-35.2 33.8-95.5 46.7-165 .2-1.4.9-5 1.5-8 .7-3 1.4-6.9 1.6-8.5 2.6-16.2 8.3-22.1 19.3-19.9zm-257.6 79.6c9.5 4.8 16.8 15.9 19.2 29 1.3 7.3 1.3 29.8 0 38.8-3.5 23.9-13.1 46.9-24.6 59.1-9.7 10.1-18.5 14.2-32.2 14.6-10.7.3-17.6-1.5-27.3-7.2-4.8-2.8-5.7-3-6-1-.1.5-.9 4.6-1.9 9-.9 4.4-1.9 9.1-2.1 10.5-.2 1.4-1.3 6.8-2.4 12-2.1 10.3-2.6 12.9-3.5 17.5-.3 1.6-1 5-1.5 7.5s-1.2 5.6-1.4 7c-1.7 10.7-4.2 20.5-5.5 22.1-2.1 2.7-7.5 2.8-10.9.3-1.5-1.1-3.8-4.2-5.2-7-2.2-4.3-2.5-6.2-2.4-14.9 0-9.6 1.1-27.7 1.9-32.7.2-1.2.6-4.4.9-7.1 1.5-12 1.9-15.1 4.2-29.2 1.4-8.3 2.7-16.1 2.9-17.5 2.9-16.5 19.1-96.4 20.5-100.6.6-1.7 2.4-4.4 4.1-6 2.8-2.7 3.6-2.9 10.2-2.9 8.6.1 14.8 2.8 17.3 7.7 1.6 3.2 2.1 13.7.7 16.2-1.5 2.6 1.7-1.4 7.4-9.4 7.2-10 15-17.7 19-18.5 1.5-.4 3.2-.8 3.8-.9 2-.5 11.1 1.7 14.8 3.6z"/><path d="M543.9 321.9c-1.9 1.1-5.3 3.9-7.3 6.2-3.7 4-3.8 4.3-3.3 9.8.8 8.3 4.2 16.4 8.3 20 1.9 1.7 4.2 3.1 5.2 3.2.9 0 2.5.2 3.5.4s3.7-.2 5.9-.9c5-1.4 5.5-2.6 5.7-15.2.3-16.5-2.9-24.1-10.4-25-2.8-.3-5.1.2-7.6 1.5zM517.6 373.9c-1.6 7.1-3.1 21.3-2.9 28.6.2 11.7 2.2 17.6 6.8 19.7 6 2.7 18.2-8.1 25.9-23.2 4.1-8 10.1-23.8 9.4-24.6-.2-.2-2.4.4-4.8 1.3-13.1 4.5-25.6 2-31.1-6.4l-1.7-2.5-1.6 7.1zM106.9 368.9c-3.6 1.4-9.3 7-13.5 13.2-7.4 11.1-14.1 28-21 52.9-6.4 22.7-6.4 22.7-2.7 26.4 5.3 5.4 12.3 6.3 19.8 2.5 16.1-8.1 29.8-42.5 29.1-73.4-.4-15.2-5.2-24.1-11.7-21.6z"/></svg>