<svg xmlns="http://www.w3.org/2000/svg" width="97.163" height="68.837" viewBox="0 0 97.163 68.837"><defs><style>.a{fill-rule:evenodd;}</style></defs><g transform="translate(-52.712 -48.819)"><path class="a" d="M75.56,82.876a2.583,2.583,0,0,1-1.866.659,1.246,1.246,0,0,1-1.317-1.427V70.25H70.4V81.559c0,2.855,1.208,3.733,2.635,3.733a3.637,3.637,0,0,0,1.647-.439l.878-1.317.769,1.537h1.208V70.25H75.56V82.876Zm6.7-11.089L81.6,70.25H80.391V84.962h1.976V72.556a2.77,2.77,0,0,1,1.866-.659c.768,0,1.208.329,1.208,1.317V85.072h2.086V73.764c0-2.855-1.208-3.733-2.635-3.733a3.274,3.274,0,0,0-1.647.439l-.988,1.317Zm-9.881,20.75a1.317,1.317,0,1,0-1.317-1.317,1.335,1.335,0,0,0,1.317,1.317Zm-.988,17.017h1.976V94.843H71.388v14.712ZM78.195,96.38l-.659-1.537H76.329v14.712H78.3V97.039a2.77,2.77,0,0,1,1.866-.659c.769,0,1.208.329,1.208,1.317v11.857h1.976v-11.2c0-2.854-1.208-3.733-2.635-3.733a3.274,3.274,0,0,0-1.647.439l-.878,1.317Zm8.344,0v13.175h1.976V96.38H90.6V94.733H88.515V92.1c0-.659.22-.878.769-.878h1.537l.11-1.317a3.038,3.038,0,0,0-1.757-.549c-1.537,0-2.525.878-2.525,3.184v2.086H85.331V96.27h1.208Zm9.112,13.5c2.415,0,3.843-1.976,3.843-7.685,0-5.489-1.537-7.575-3.843-7.575-2.415,0-3.952,1.976-3.952,7.685,0,5.489,1.537,7.575,3.952,7.575Zm0-1.757c-1.208,0-1.757-.878-1.757-4.392v-3.184c0-3.294.549-4.172,1.757-4.172s1.757.768,1.757,4.282v3.184c0,3.4-.659,4.282-1.757,4.282ZM103.776,96.6l-.769-1.757H101.8v14.712h1.976V97.478a3.012,3.012,0,0,1,1.976-.769c.439,0,.659.11.988.11l.329-1.866a2.362,2.362,0,0,0-1.1-.22,3.039,3.039,0,0,0-1.427.329l-.769,1.537Zm12.077-.22-.769-1.317a3.174,3.174,0,0,0-1.537-.439,3.274,3.274,0,0,0-1.647.439l-.878,1.317-.659-1.537h-1.208v14.712h1.976V97.039a2.493,2.493,0,0,1,1.757-.659c.769,0,1.208.329,1.208,1.317v11.857h1.976V97.039a2.421,2.421,0,0,1,1.647-.659c.769,0,1.208.329,1.208,1.317v11.857H120.9v-11.2c0-2.854-1.208-3.733-2.525-3.733a2.841,2.841,0,0,0-1.537.439l-.988,1.317Zm12.3,4.392-1.208.11c-2.525.329-3.733,1.427-3.733,4.721,0,3.184,1.427,4.172,3.074,4.172a4.1,4.1,0,0,0,1.317-.22l.769-1.208.659,1.317a2.069,2.069,0,0,0,.878.22,2.354,2.354,0,0,0,1.317-.439v-1.208h-.329c-.439,0-.659-.11-.659-.769V99.454c0-3.733-1.208-4.94-3.294-4.94a6.811,6.811,0,0,0-3.184.769l.329,1.647a6.634,6.634,0,0,1,2.635-.549c1.208,0,1.537.659,1.537,2.2v2.2Zm0,6.807a2.022,2.022,0,0,1-1.537.659c-.988,0-1.537-.439-1.537-1.976v-1.537c0-1.866.549-2.415,1.866-2.525l1.208-.11v5.489Zm7.685,2.306a4.785,4.785,0,0,0,1.976-.439l-.11-1.1h-1.427c-.659,0-.878-.22-.878-.988V96.6h2.086V94.953h-2.086V91.33h-.878l-.988,3.623h-1.208V96.6h1.208v10.21c-.11,2.2.769,3.074,2.306,3.074Zm12.077,0a4.169,4.169,0,0,0,2.415-.769L150,107.578a4.109,4.109,0,0,1-1.976.549c-1.317,0-1.976-.878-1.976-4.5v-3.074c0-3.4.659-4.172,1.976-4.172a5.771,5.771,0,0,1,1.866.439l.329-1.647a4.419,4.419,0,0,0-2.306-.659c-2.635,0-3.952,1.976-3.952,7.575.11,5.819,1.427,7.795,3.952,7.795Zm7.795,0c2.415,0,3.843-1.976,3.843-7.685,0-5.489-1.537-7.575-3.843-7.575-2.415,0-3.952,1.976-3.952,7.685,0,5.489,1.537,7.575,3.952,7.575Zm0-1.757c-1.208,0-1.757-.878-1.757-4.392v-3.184c0-3.294.549-4.172,1.757-4.172s1.757.768,1.757,4.282v3.184c0,3.4-.659,4.282-1.757,4.282Zm8.344,1.757c2.306,0,3.513-1.317,3.513-4.172,0-2.415-.659-3.623-2.525-4.611-1.427-.769-1.757-1.1-1.757-2.745s.439-2.086,1.537-2.086a4.385,4.385,0,0,1,1.976.439l.329-1.537a4.658,4.658,0,0,0-2.525-.659c-1.976,0-3.294,1.1-3.294,3.952,0,2.415.769,3.4,2.2,4.172,1.757.988,1.976,1.317,1.976,3.074,0,1.866-.549,2.415-1.647,2.415a6.467,6.467,0,0,1-2.306-.549l-.329,1.537a6.33,6.33,0,0,0,2.855.769Zm-88.16,9.991a2.772,2.772,0,0,0-2.086-1.208c-1.866,0-3.4,1.537-3.4,7.575,0,5.819,1.208,7.685,3.513,7.685a2.669,2.669,0,0,0,1.208-.329L76,132.281l.659,1.427h1.317V113.946H75.889v5.929Zm0,11.747a2.258,2.258,0,0,1-1.647.878c-1.208,0-1.757-.988-1.757-4.392V124.6c0-3.513.549-4.172,1.757-4.172a2.516,2.516,0,0,1,1.647.659v10.54Zm6.368-4.721h5.38v-1.976c0-4.062-1.1-6.258-3.623-6.258s-3.952,1.976-3.952,7.685c0,5.6,1.427,7.575,4.282,7.575a5.277,5.277,0,0,0,2.964-.878l-.329-1.537a6.618,6.618,0,0,1-2.525.659c-1.647,0-2.306-.878-2.306-4.5V126.9Zm0-1.427v-.439c0-3.733.549-4.611,1.757-4.611s1.647.878,1.647,3.733v1.317Zm15.37,8.454a4.169,4.169,0,0,0,2.415-.769l-.329-1.537a4.109,4.109,0,0,1-1.976.549c-1.317,0-1.976-.878-1.976-4.5V124.6c0-3.4.659-4.172,1.976-4.172a5.771,5.771,0,0,1,1.866.439l.329-1.647a4.419,4.419,0,0,0-2.306-.659c-2.635,0-3.952,1.976-3.952,7.575,0,5.819,1.317,7.795,3.952,7.795Zm9.442-2.415a2.582,2.582,0,0,1-1.866.659,1.246,1.246,0,0,1-1.317-1.427V118.887h-1.976v11.308c0,2.855,1.208,3.733,2.635,3.733a3.637,3.637,0,0,0,1.647-.439l.878-1.317.769,1.537h1.208V119h-1.976v12.516Zm6.478.878.878,1.317a3.529,3.529,0,0,0,1.537.329c2.2,0,3.513-1.647,3.513-7.575s-1.208-7.685-3.184-7.685a2.936,2.936,0,0,0-2.306,1.427v-6.148H112.01v19.762H113l.549-1.427Zm.329-11.089a2.335,2.335,0,0,1,1.647-.769c1.1,0,1.757.659,1.757,4.172v3.4c0,3.4-.659,4.392-1.866,4.392a2.168,2.168,0,0,1-1.537-.659V121.3Zm12.3,3.623-1.208.11c-2.525.329-3.733,1.427-3.733,4.721,0,3.184,1.427,4.172,3.074,4.172a4.1,4.1,0,0,0,1.317-.22l.769-1.208.659,1.317a2.068,2.068,0,0,0,.878.22,2.354,2.354,0,0,0,1.317-.439v-1.208h-.329c-.439,0-.659-.11-.659-.769v-8.015c0-3.733-1.208-4.941-3.294-4.941a6.811,6.811,0,0,0-3.184.769l.329,1.647a6.634,6.634,0,0,1,2.635-.549c1.208,0,1.537.659,1.537,2.2v2.2Zm0,6.807a2.022,2.022,0,0,1-1.537.659c-.988,0-1.537-.439-1.537-1.976v-1.537c0-1.866.549-2.415,1.866-2.525l1.208-.11v5.489ZM97.737,65.2h5.38v2.2h-5.38V65.2Zm26.679,23.165h5.38v2.2h-5.38v-2.2ZM90.272,70.25h1.976V84.962H90.272V70.25Zm1.976-3.513H90.382V68.6h1.866V66.737Zm47.429,28.106h1.976v14.712h-1.976V94.843Zm1.866-3.623h-1.866v1.866h1.866V91.22ZM98.616,85.291c2.415,0,3.843-1.976,3.843-7.685,0-5.489-1.537-7.575-3.843-7.575-2.415,0-3.952,1.976-3.952,7.685,0,5.6,1.537,7.575,3.952,7.575Zm0-1.647c-1.208,0-1.757-.878-1.757-4.392V76.069c0-3.294.549-4.172,1.757-4.172s1.757.769,1.757,4.282v3.074c0,3.4-.659,4.392-1.757,4.392Zm8.124-11.857-.659-1.537h-1.208V84.962h1.976V72.556a2.77,2.77,0,0,1,1.866-.659c.769,0,1.208.329,1.208,1.317V85.072H111.9V73.764c0-2.855-1.208-3.733-2.635-3.733a3.274,3.274,0,0,0-1.647.439l-.878,1.317Zm17.017-.549a2.772,2.772,0,0,0-2.086-1.208c-1.866,0-3.4,1.537-3.4,7.575,0,5.819,1.208,7.685,3.513,7.685a2.669,2.669,0,0,0,1.208-.329l.878-1.317.659,1.427h1.317V65.31h-2.086v5.929Zm0,11.747a2.258,2.258,0,0,1-1.647.878c-1.208,0-1.757-.988-1.757-4.392V75.959c0-3.513.549-4.172,1.757-4.172a2.516,2.516,0,0,1,1.647.659v10.54Zm6.478-4.721h5.38V76.289c0-4.062-1.1-6.258-3.623-6.258s-3.952,1.976-3.952,7.685c0,5.6,1.427,7.575,4.282,7.575a5.277,5.277,0,0,0,2.964-.878l-.329-1.537a6.617,6.617,0,0,1-2.525.659c-1.647,0-2.306-.878-2.306-4.5v-.769Zm0-1.427V76.4c0-3.733.549-4.611,1.757-4.611s1.647.878,1.647,3.733v1.317Z" transform="translate(-17.688 -16.381)"/></g></svg>